# AST/ASF file generated using VICON BodyLanguage
# -----------------------------------------------
:version 1.10
:name VICON
:units
  mass 1.0
  length 0.45
  angle deg
:documentation
   .ast/.asf automatically generated from VICON data using
   VICON BodyBuilder and BodyLanguage model FoxedUp or BRILLIANT.MOD
:root
   order TX TY TZ RX RY RZ
   axis XYZ
   position 0 0 0  
   orientation 0 0 0 
:bonedata
  begin
     id 1 
     name lhipjoint
     direction 0.547975 -0.797114 0.253638 
     length 2.36201 
     axis 0 0 0  XYZ
  end
  begin
     id 2 
     name lfemur
     direction 0.34202 -0.939693 0  
     length 7.69075  
     axis 0 0 20  XYZ
    dof rx ry rz
    limits (-160.0 20.0)
           (-70.0 70.0)
           (-60.0 70.0)
  end
  begin
     id 3 
     name ltibia
     direction 0.34202 -0.939693 0   
     length 7.91399   
     axis 0 0 20   XYZ
    dof rx
    limits (-10.0 170.0)
  end
  begin
     id 4 
     name lfoot
     direction 0.0705293 -0.193778 0.978507   
     length 2.13618   
     axis -90 7.62852e-016 20   XYZ
    dof rx rz
    limits (-45.0 90.0)
           (-70.0 20.0)
  end
  begin
     id 5 
     name ltoes
     direction 1.53592e-011 -4.21925e-011 1   
     length 1.07518   
     axis -90 7.62852e-016 20   XYZ
    dof rx
    limits (-90.0 20.0)
  end
  begin
     id 6 
     name rhipjoint
     direction -0.57 -0.782963 0.249136   
     length 2.4047  
     axis 0 0 0  XYZ 
  end
  begin
     id 7 
     name rfemur
     direction -0.34202 -0.939693 0   
     length 7.51486   
     axis 0 0 -20   XYZ
    dof rx ry rz
    limits (-160.0 20.0)
           (-70.0 70.0)
           (-70.0 60.0)
  end
  begin
     id 8 
     name rtibia
     direction -0.34202 -0.939693 0   
     length 8.08317   
     axis 0 0 -20   XYZ
    dof rx
    limits (-10.0 170.0)
 end
 begin
     id 9 
     name rfoot
     direction -0.104954 -0.281256 0.953876   
     length 2.30343  
     axis -90 -7.62852e-016 -20   XYZ
    dof rx rz
    limits (-45.0 90.0)
           (-20.0 70.0)
  end
  begin
     id 10 
     name rtoes
     direction -1.53556e-011 -4.21922e-011 1   
     length 1.14803   
     axis -90 -7.62852e-016 -20   XYZ
    dof rx
    limits (-90.0 20.0)
  end
  begin
     id 11 
     name lowerback
     direction -0.0152855 0.99353 -0.11254   
     length 2.05311   
     axis 0 0 0   XYZ
    dof rx ry rz
    limits (-20.0 45.0)
           (-30.0 30.0)
           (-30.0 30.0)
  end
  begin
     id 12 
     name upperback
     direction -0.00157509 0.999443 -0.033332   
     length 2.06353   
     axis 0 0 0   XYZ
    dof rx ry rz
    limits (-20.0 45.0)
           (-30.0 30.0)
           (-30.0 30.0)
  end
  begin
     id 13 
     name thorax
     direction 0.00577788 0.999804 0.0189484   
     length 2.08472   
     axis 0 0 0   XYZ
    dof rx ry rz
    limits (-20.0 45.0)
           (-30.0 30.0)
           (-30.0 30.0)
  end
  begin
     id 14 
     name lowerneck
     direction -1.09301e-005 0.994719 0.10264   
     length 1.76249   
     axis 0 0 0   XYZ
    dof rx ry rz
    limits (-20.0 45.0)
           (-30.0 30.0)
           (-30.0 30.0)
  end
  begin
     id 15 
     name upperneck
     direction 0.0495018 0.988526 -0.142706   
     length 1.77897   
     axis 0 0 0   XYZ
    dof rx ry rz
    limits (-20.0 45.0)
           (-30.0 30.0)
           (-30.0 30.0)
  end
  begin
     id 16
     name head
     direction 0.0142736 0.998114 -0.0597101  
     length 1.78934  
     axis 0 0 0   XYZ
    dof rx ry rz
    limits (-20.0 45.0)
           (-30.0 30.0)
           (-30.0 30.0)
  end
  begin
     id 17 
     name lclavicle
     direction 0.918111 0.396107 -0.0130883  
     length 3.37276  
     axis 0 0 0   XYZ
    dof ry rz
    limits (-20.0 10.0)
           (0.0 20.0)
  end
  begin
     id 18 
     name lhumerus
     direction 1 -4.48975e-011 -3.26108e-027   
     length 5.34298   
     axis 180 -30 -90   XYZ
    dof rx ry rz
    limits (-60.0 90.0)
           (-90.0 90.0)
           (-90.0 90.0)
  end
  begin
     id 19
     name lradius
     direction 1 -4.48964e-011 -8.84413e-028   
     length 3.67262   
     axis 180 -30 -90   XYZ
    dof rx
    limits (-10.0 170.0)
  end
  begin
     id 20
     name lwrist
     direction 1 -4.48991e-011 -1.24264e-027   
     length 1.83631   
     axis -2.17013e-015 90 90   XYZ
    dof ry
    limits (-180.0 0.0)
 end
  begin
     id 21 
     name lhand
     direction 1 -4.48855e-011 -2.48528e-027   
     length 0.599298   
     axis 1.58582e-015 90 90   XYZ
    dof rx rz
    limits (-90.0 90.0)
           (-45.0 45.0)
  end
  begin
     id 22 
     name lfingers
     direction 1 -4.48811e-011 -4.97056e-027   
     length 0.48317   
     axis 3.17164e-015 90 90   XYZ
    dof rx
    limits (0.0 90.0)
  end
  begin
     id 23
     name lthumb
     direction 0.707107 -6.34882e-011 0.707107   
     length 0.693738   
     axis -90 45 2.85299e-015   XYZ
    dof rx rz
    limits (-45.0 45.0)
           (-45.0 45.0)
  end
  begin
     id 24 
     name rclavicle
     direction -0.920511 0.384752 -0.0680135   
     length 3.43787  
     axis 0 0 0   XYZ 
    dof ry rz
    limits (-10.0 20.0)
           (-20.0 0.0)
  end
  begin
     id 25 
     name rhumerus
     direction -0.999976 -0.00330524 0.00603274  
     length 5.5498   
     axis 180 30 90   XYZ
    dof rx ry rz
    limits (-90.0 60.0)
           (-90.0 90.0)
           (-90.0 90.0)
  end
  begin
     id 26 
     name rradius
     direction -1 -4.48967e-011 8.62438e-027   
     length 3.69401   
     axis 180 30 90   XYZ
    dof rx
    limits (-10.0 170.0)
  end
  begin
     id 27 
     name rwrist
     direction -1 -4.4897e-011 9.54866e-027   
     length 1.84701   
     axis -7.69462e-015 -90 -90   XYZ
    dof ry
    limits (-180.0 0.0)
  end
  begin
     id 28
     name rhand
     direction -1 -4.48982e-011 1.90973e-026   
     length 0.638113   
     axis -1.21857e-014 -90 -90   XYZ
    dof rx rz
    limits (-90.0 90.0)
           (-45.0 45.0)
  end
  begin
     id 29
     name rfingers
     direction -1 -4.48936e-011 3.81946e-026   
     length 0.514463   
     axis -2.43714e-014 -90 -90   XYZ
    dof rx
    limits (0.0 90.0)
  end
  begin
     id 30
     name rthumb
     direction -0.707107 -6.34942e-011 0.707107   
     length 0.738669   
     axis -90 -45 -2.85299e-015   XYZ
    dof rx rz
    limits (-45.0 45.0)
           (-45.0 45.0)
  end
:hierarchy
  begin
    root lhipjoint rhipjoint lowerback
    lhipjoint lfemur
    lfemur ltibia
    ltibia lfoot
    lfoot ltoes
    rhipjoint rfemur
    rfemur rtibia
    rtibia rfoot
    rfoot rtoes
    lowerback upperback
    upperback thorax
    thorax lowerneck lclavicle rclavicle
    lowerneck upperneck
    upperneck head
    lclavicle lhumerus
    lhumerus lradius
    lradius lwrist
    lwrist lhand lthumb
    lhand lfingers
    rclavicle rhumerus
    rhumerus rradius
    rradius rwrist
    rwrist rhand rthumb
    rhand rfingers
  end

#!OML:ASF F:\twosubjects\two\Thursday\Session 1\Rory.ASF
:FULLY-SPECIFIED
:DEGREES
345
root 11.2333 18.9329 9.86425 -163.471 -78.1502 167.238
lowerback -5.50661 -4.65558 -5.10614
upperback 0.00063904 -5.86978 -0.937356
thorax 3.49263 -3.00531 1.3596
lowerneck 4.56727 -14.8629 -14.776
upperneck 14.4607 -24.2056 16.9284
head 7.58406 -12.2005 5.82778
rclavicle 7.29726e-014 -7.95139e-015
rhumerus -36.0675 16.917 -92.0059
rradius 107.524
rwrist -11.7969
rhand -20.972 33.3127
rfingers 7.12502
rthumb 5.40134 3.40155
lclavicle 7.29726e-014 -7.95139e-015
lhumerus -0.139889 -46.5303 81.5273
lradius 105.345
lwrist 16.9591
lhand -3.58036 33.3435
lfingers 7.12502
lthumb 22.1569 62.0937
rfemur -3.07104 11.9106 13.1057
rtibia 9.84171
rfoot -7.60996 -7.03086
rtoes -15.485
lfemur 2.67379 -1.7254 -18.4333
ltibia 4.90875
lfoot -10.9655 12.5328
ltoes 16.3269
346
root 11.2375 18.9323 9.8707 -163.396 -78.1523 167.129
lowerback -5.43962 -4.62828 -5.03885
upperback -0.0143161 -5.84167 -0.992696
thorax 3.42505 -2.98891 1.27574
lowerneck 4.63638 -14.9698 -14.5599
upperneck 14.2623 -24.2653 16.7383
head 7.46548 -12.2303 5.74085
rclavicle -1.02803e-013 -3.37934e-014
rhumerus -35.9805 18.03 -92.6285
rradius 107.154
rwrist -11.7784
rhand -19.8343 34.2744
rfingers 7.12502
rthumb 6.49978 4.39411
lclavicle -1.02803e-013 -3.37934e-014
lhumerus 0.987314 -47.0389 80.828
lradius 105.235
lwrist 18.2776
lhand -3.56006 33.5393
lfingers 7.12502
lthumb 22.1764 62.2873
rfemur -3.09763 11.9029 13.1284
rtibia 10.0013
rfoot -7.5967 -7.02901
rtoes -15.3151
lfemur 2.86236 -1.73687 -18.4733
ltibia 4.61054
lfoot -10.9591 12.433
ltoes 16.4524
347
root 11.2429 18.9329 9.87544 -162.899 -78.0673 166.611
lowerback -5.37561 -4.5948 -5.08649
upperback -0.0423029 -5.79878 -1.05155
thorax 3.35598 -2.96703 1.25278
lowerneck 4.61369 -15.0691 -14.379
upperneck 14.1328 -24.3109 16.5207
head 7.38341 -12.2486 5.64293
rclavicle -1.35546e-014 8.74653e-015
rhumerus -35.9043 18.9794 -93.1252
rradius 106.885
rwrist -11.6303
rhand -16.5324 35.841
rfingers 7.12502
rthumb 9.68649 6.0837
lclavicle -1.35546e-014 8.74653e-015
lhumerus 2.1358 -47.3846 80.118
lradius 105.023
lwrist 19.1811
lhand -2.78636 33.6456
lfingers 7.12502
lthumb 22.919 62.3034
rfemur -3.21107 13.6621 13.0482
rtibia 10.3705
rfoot -7.61644 -8.81485
rtoes -15.2911
lfemur 3.2298 -1.69203 -18.6092
ltibia 3.89611
lfoot -10.562 12.4314
ltoes 17.3502
348
root 11.2477 18.9256 9.86989 -162.334 -77.86 165.988
lowerback -5.37335 -4.63782 -5.28839
upperback -0.0534656 -5.84456 -1.06654
thorax 3.36479 -2.99321 1.34372
lowerneck 4.48009 -15.0171 -14.5888
upperneck 14.2961 -24.2496 16.4853
head 7.47038 -12.2182 5.65164
rclavicle -7.64576e-014 -1.39149e-014
rhumerus -35.5932 20.3489 -93.5912
rradius 106.334
rwrist -11.3066
rhand -14.9376 36.6966
rfingers 7.12502
rthumb 11.2249 7.01688
lclavicle -7.64576e-014 -1.39149e-014
lhumerus 3.05193 -47.3887 79.4175
lradius 104.942
lwrist 20.0831
lhand -1.71512 33.4529
lfingers 7.12502
lthumb 23.9466 61.9796
rfemur -3.43404 14.1024 12.8787
rtibia 10.8399
rfoot -7.78958 -9.13679
rtoes -15.7337
lfemur 3.71386 -1.54 -18.8257
ltibia 2.7988
lfoot -9.57143 13.0868
ltoes 15.3156
349
root 11.2501 18.9164 9.86495 -162.306 -77.6757 165.919
lowerback -5.41167 -4.65878 -5.29819
upperback -0.0570492 -5.8692 -1.10234
thorax 3.38133 -3.00582 1.30681
lowerneck 4.3708 -14.946 -14.7164
upperneck 14.5005 -24.1672 16.4167
head 7.5483 -12.1782 5.64542
rclavicle 1.01877e-013 1.70955e-014
rhumerus -35.2814 21.6162 -94.147
rradius 105.738
rwrist -10.7966
rhand -15.5318 36.6335
rfingers 7.12502
rthumb 10.6518 6.92352
lclavicle 1.01877e-013 1.70955e-014
lhumerus 3.75234 -47.3459 78.7593
lradius 105.036
lwrist 21.1024
lhand -1.02197 33.1565
lfingers 7.12502
lthumb 24.6111 61.5943
rfemur -3.50365 13.2197 12.7881
rtibia 10.8948
rfoot -7.72714 -8.10199
rtoes -16.8641
lfemur 3.66475 -1.36629 -18.9839
ltibia 2.64164
lfoot -9.07941 13.9272
ltoes 11.6914
350
root 11.2543 18.9131 9.85943 -162.782 -77.4538 166.466
lowerback -5.50473 -4.60863 -5.22925
upperback -0.0611727 -5.80058 -1.11544
thorax 3.41634 -2.97108 1.25487
lowerneck 4.27673 -14.9725 -14.4564
upperneck 14.4557 -24.1107 16.1567
head 7.47307 -12.1419 5.53278
rclavicle -3.02525e-014 -3.97569e-015
rhumerus -35.0644 22.6818 -94.6517
rradius 105.342
rwrist -10.3903
rhand -13.3654 36.2004
rfingers 7.12502
rthumb 12.7409 6.60915
lclavicle -3.02525e-014 -3.97569e-015
lhumerus 4.50906 -47.2906 78.157
lradius 104.971
lwrist 21.9497
lhand -0.0663004 32.7
lfingers 7.12502
lthumb 25.5269 61.0099
rfemur -3.64015 13.1243 12.8257
rtibia 10.9194
rfoot -7.76837 -7.77008
rtoes -16.716
lfemur 3.61048 -1.11764 -18.9696
ltibia 2.55166
lfoot -8.5974 14.2426
ltoes 8.47991
